<svg width="32" height="28" viewBox="0 0 32 28" fill="none" xmlns="http://www.w3.org/2000/svg">
<path d="M7.73115 22.4506C8.53719 21.8632 9.58068 21.7133 10.5179 22.0507C12.1738 22.6505 14.0296 22.9942 16.0041 22.9942C23.7958 22.9942 29.0008 17.9642 29.0008 12.9967C29.0008 8.02922 23.7958 2.99924 16.0041 2.99924C8.21228 2.99924 3.00734 8.02922 3.00734 12.9967C3.00734 14.9962 3.78215 16.9207 5.23803 18.5703C5.77539 19.1764 6.03782 19.9762 5.97534 20.7885C5.88786 21.9195 5.61918 22.9567 5.26927 23.8752C6.3315 23.3816 7.21253 22.8317 7.73115 22.4568V22.4506ZM1.33277 24.9874C1.44524 24.8187 1.55146 24.65 1.65144 24.4813C2.27628 23.4441 2.86988 22.0819 2.9886 20.551C1.11407 18.4203 0.00810139 15.8147 0.00810139 12.9967C0.00810139 5.81728 7.16879 0 16.0041 0C24.8393 0 32 5.81728 32 12.9967C32 20.1761 24.8393 25.9934 16.0041 25.9934C13.6859 25.9934 11.4864 25.5935 9.49945 24.875C8.75589 25.4186 7.54369 26.1621 6.10656 26.787C5.16305 27.1994 4.08832 27.5743 2.9761 27.793C2.92611 27.8055 2.87613 27.8117 2.82614 27.8242C2.55121 27.8742 2.28253 27.9179 2.00135 27.9429C1.98885 27.9429 1.9701 27.9492 1.95761 27.9492C1.63894 27.9804 1.32027 27.9992 1.0016 27.9992C0.595453 27.9992 0.233044 27.7555 0.076834 27.3806C-0.0793765 27.0057 0.00810138 26.5808 0.28928 26.2933C0.545465 26.0309 0.776657 25.7497 0.995351 25.4498C1.10157 25.3061 1.20155 25.1624 1.29528 25.0187C1.30152 25.0062 1.30777 24.9999 1.31402 24.9874H1.33277Z" fill="#F2F3C1"/>
</svg>
