<svg width="32" height="37" viewBox="0 0 32 37" fill="none" xmlns="http://www.w3.org/2000/svg">
<path d="M21.7143 9.14286C21.7143 7.62733 21.1122 6.17388 20.0406 5.10225C18.969 4.03061 17.5155 3.42857 16 3.42857C14.4845 3.42857 13.031 4.03061 11.9594 5.10225C10.8878 6.17388 10.2857 7.62733 10.2857 9.14286C10.2857 10.6584 10.8878 12.1118 11.9594 13.1835C13.031 14.2551 14.4845 14.8571 16 14.8571C17.5155 14.8571 18.969 14.2551 20.0406 13.1835C21.1122 12.1118 21.7143 10.6584 21.7143 9.14286ZM6.85714 9.14286C6.85714 6.71802 7.82041 4.3925 9.53502 2.67788C11.2496 0.963263 13.5752 0 16 0C18.4248 0 20.7504 0.963263 22.465 2.67788C24.1796 4.3925 25.1429 6.71802 25.1429 9.14286C25.1429 11.5677 24.1796 13.8932 22.465 15.6078C20.7504 17.3225 18.4248 18.2857 16 18.2857C13.5752 18.2857 11.2496 17.3225 9.53502 15.6078C7.82041 13.8932 6.85714 11.5677 6.85714 9.14286ZM3.52143 33.1429H28.4786C27.8429 28.6214 23.9571 25.1429 19.2643 25.1429H12.7357C8.04286 25.1429 4.15714 28.6214 3.52143 33.1429ZM0 34.45C0 27.4143 5.7 21.7143 12.7357 21.7143H19.2643C26.3 21.7143 32 27.4143 32 34.45C32 35.6214 31.05 36.5714 29.8786 36.5714H2.12143C0.95 36.5714 0 35.6214 0 34.45Z" fill="#F2F3C1"/>
</svg>
