<svg width="32" height="25" viewBox="0 0 32 25" fill="none" xmlns="http://www.w3.org/2000/svg">
<path d="M21.3347 24.8905H24.0016C24.6349 24.8905 25.2183 24.5572 25.535 24.0071L31.7576 13.3398C32.0799 12.7897 32.0799 12.1119 31.7632 11.5563C31.4465 11.0007 30.8631 10.6674 30.2242 10.6674H8.00052C7.36715 10.6674 6.78377 11.0007 6.46709 11.5507L2.66684 18.0623V3.55579C2.66684 3.06687 3.06687 2.66684 3.55579 2.66684H10.084C10.3173 2.66684 10.5451 2.76129 10.7118 2.92797L12.1841 4.40029C13.3509 5.56703 14.9343 6.22263 16.5844 6.22263H23.1126C23.6015 6.22263 24.0016 6.62265 24.0016 7.11157V8.88947H26.6684V7.11157C26.6684 5.15033 25.0739 3.55579 23.1126 3.55579H16.5844C15.6399 3.55579 14.7343 3.18354 14.0676 2.51683L12.5953 1.03896C11.9286 0.372246 11.0229 0 10.0784 0H3.55579C1.59455 0 0 1.59455 0 3.55579V21.3347C0 23.296 1.59455 24.8905 3.55579 24.8905H4.87254H21.3347Z" fill="#F2F3C1"/>
</svg>
